<svg xmlns="http://www.w3.org/2000/svg" viewBox="0 0 24 24"><path fill="#aba6a6" d="M6.943 14.523a.787.787 0 0 0-.807.767.787.787 0 0 0 .754.819.787.787 0 0 0 .807-.767.787.787 0 0 0-.754-.819"></path><path fill="#aba6a6" d="M6.88 16.4a1.08 1.08 0 0 1-1.03-1.12c.02-.581.505-1.068 1.103-1.048a1.08 1.08 0 0 1 1.03 1.12c-.046.58-.53 1.067-1.103 1.048m.093-2.776c-.91-.03-1.69.711-1.72 1.637-.032.925.697 1.716 1.607 1.747.91.03 1.69-.711 1.72-1.636.032-.926-.697-1.717-1.607-1.748m11.01.899c-.431 0-.78.355-.78.793 0 .438.349.793.78.793.43 0 .78-.355.78-.793s-.35-.793-.78-.793"></path><path fill="#aba6a6" d="M17.983 16.4a1.08 1.08 0 0 1-1.067-1.084c0-.582.468-1.085 1.067-1.085a1.08 1.08 0 0 1 1.067 1.085c-.027.582-.495 1.085-1.067 1.085m0-2.777c-.91 0-1.665.766-1.665 1.692 0 .926.754 1.693 1.665 1.693s1.665-.767 1.665-1.693-.755-1.693-1.665-1.693"></path><path fill="#aba6a6" d="m22.621 11.706-2.54.498-15.427.003v.008c-.49.205-.909.607-1.197 1.15H.8c0-.429.008-1.612.115-2.536.053-.45.216-1.169.333-1.597h3.407v2.63h.56v-2.63h4.4v2.63h.574v-2.63h4.399v2.63h.528v-2.63h4.399v2.63h.556v-2.63h2.551v2.474zm.53-4.703c-5.31-.037-5.146.316-5.597.534h-7.06l-.092-.207c-.079-.129-.259-.33-.44-.33H5.545c-.141 0-.384.144-.465.268a8.356 8.356 0 0 0-1.792-.077c-1.608.088-2.78.472-2.78.782l-.003.874c-.072.357-.683.953-.455 6.747l1.624.338h3.202a2.123 2.123 0 0 1-.091-.616 2.13 2.13 0 1 1 4.17.616h6.987a2.123 2.123 0 0 1-.091-.616 2.13 2.13 0 1 1 4.183.568L24 15.403V7.944c0-.28-.39-.938-.849-.941z"></path></svg>