<svg xmlns="http://www.w3.org/2000/svg" viewBox="0 0 86.4 47.41"><circle cx="13.69" cy="41.25" r="3.01">
</circle>
<path fill="#aba6a6" d="M13.69 35.09a6.16 6.16 0 1 0 6.16 6.16 6.16 6.16 0 0 0-6.16-6.16zm0 10.27a4.11 4.11 0 1 1 4.11-4.11 4.11 4.11 0 0 1-4.11 4.11z"></path>
<circle cx="72.88" cy="41.25" r="3.01"></circle>
<path fill="#aba6a6" d="M85.49 37.23S85.7 21 82 15.81a5.666 5.666 0 0 0-2.38-.52V12.2l1.52.35.45-2L35.69 0l-.45 2 2.47.57-3 13a14.956 14.956 0 0 0-3.09.57c-5.59 2.64-5.61 2.31-15 9.16 0 0-11.79 3.21-14.44 4.85A35.556 35.556 0 0 0 .79 34l.3 2.12L0 37.41l.48 5.3 6 1.28a7.67 7.67 0 0 1 4.41-9.91 7.67 7.67 0 0 1 9.91 9.91c6.92 0 42-.66 44.65-.68a7.66 7.66 0 0 1 1.73-7.24 7.55 7.55 0 0 1 11.33 0l.15.18a7.632 7.632 0 0 1 1.84 5 7.753 7.753 0 0 1-.14 1.45l5.53-1.06.46-2.21-.86-2.2zM7.65 31.67l-5.46 3.4 1.15-3.37 4.95-2-.64 1.97zm2.25-2.59s.74-.24 8.22-2.14a59.454 59.454 0 0 1 14-8.91A35.124 35.124 0 0 1 39.68 17l-.24 8.71c1.2-.09 2.81-.15 4-.24l-.24-8.57c1 0 10.49-.23 18.88-.16l.92 7.84 1.73-.08-.89-7.88c5.87.13 11.86.63 13.07 1.35a11.812 11.812 0 0 1 4 7.21c-12.74-.04-56.61 2.07-71.01 3.9z"></path>
<path fill="#aba6a6" d="M72.88 35.09a6.16 6.16 0 1 0 6.12 6.2v-.04a6.16 6.16 0 0 0-6.12-6.16zm0 10.27a4.11 4.11 0 1 1 .01 0h-.01z">    
</path>
</svg>