<svg xmlns="http://www.w3.org/2000/svg" viewBox="0 0 24 24"><path fill="#aba6a6" d="M20.025 18.326a1.582 1.582 0 0 1-1.586-1.579v-.007a1.582 1.582 0 0 1 1.578-1.586h.008c.9 0 1.586.729 1.586 1.586a1.61 1.61 0 0 1-1.586 1.586m0-4.115a2.533 2.533 0 0 0-2.53 2.529 2.533 2.533 0 0 0 2.53 2.529 2.533 2.533 0 0 0 2.528-2.529c-.043-1.414-1.157-2.529-2.528-2.529"></path><path fill="#aba6a6" d="M20.025 15.583a1.157 1.157 0 1 1 0 2.314 1.157 1.157 0 0 1 0-2.314M4.277 18.41a1.582 1.582 0 0 1-1.586-1.578v-.008A1.582 1.582 0 0 1 4.27 15.24h.007c.9 0 1.586.729 1.586 1.586a1.61 1.61 0 0 1-1.586 1.586m0-4.115a2.533 2.533 0 0 0-2.529 2.53 2.533 2.533 0 0 0 2.529 2.528 2.533 2.533 0 0 0 2.529-2.529c-.043-1.414-1.158-2.529-2.53-2.529"></path><path fill="#aba6a6" d="M4.277 15.668a1.157 1.157 0 1 1 0 2.314 1.157 1.157 0 0 1 0-2.314"></path><path fill="#aba6a6" d="m7.064 10.055-2.113.46c.435-.324 1.224-.701 2.025-1.279 2.997-2.163 3.723-2.481 4.37-2.754.801-.339 1.876-.613 2.747-.628.193-.003 2.19-.014 2.716.078.608.107 1.007.458 1.262.999.296.63.361 1.188.373 1.455a3.743 3.743 0 0 1-.024.61l1.46.37c-4.214.23-8.601.46-12.816.689M3.98 12.524l-2.059.864.943-1.235 1.02-.768c-.009.028 1.068 0 1.068 0s-.962 1.104-.972 1.139M23.16 16.82l.774-.025-.18-2.907-.696-1.755-.298-2.47s-1.02-3.842-1.62-4.019c-.6-.177-2.398-.418-3.128-.465-.647-.042-3.06-.131-3.984-.075-1.4.087-3.048.533-4.332 1.204-1.171.612-2.743 1.628-5.763 3.79-.744.534-1.35.974-1.743 1.26L.98 13.227l-.19 1.057-.605.965L0 16.601l.544.907.399.004.246-.007a3.127 3.127 0 0 1-.078-.69 3.134 3.134 0 0 1 3.131-3.131c1.702 0 3.077 1.367 3.13 3.112l.001.01v.008c0 .17-.015.337-.041.5l9.581-.299a3.12 3.12 0 0 1-.013-.267 3.135 3.135 0 0 1 3.131-3.131c1.703 0 3.078 1.367 3.131 3.112v.019l-.002.072"></path></svg>