<svg xmlns="http://www.w3.org/2000/svg" viewBox="0 0 24 24"><path fill="#aba6a6" d="M20.45 16.716a.824.824 0 0 0-.817.831c0 .46.366.832.818.832a.825.825 0 0 0 .818-.832.825.825 0 0 0-.818-.83"></path><path fill="#aba6a6" d="M20.45 18.684c-.6 0-1.117-.5-1.117-1.136 0-.61.491-1.137 1.118-1.137.6 0 1.117.5 1.117 1.137-.027.609-.518 1.136-1.117 1.136m0-2.91c-.954 0-1.745.804-1.745 1.774s.79 1.773 1.745 1.773c.954 0 1.744-.803 1.744-1.773 0-.97-.79-1.774-1.744-1.774m-14.618.942a.825.825 0 0 0-.818.831c0 .46.367.832.818.832a.825.825 0 0 0 .818-.832.825.825 0 0 0-.818-.83"></path><path fill="#aba6a6" d="M5.833 18.684c-.6 0-1.117-.5-1.117-1.136 0-.61.49-1.137 1.117-1.137.6 0 1.118.5 1.118 1.137-.028.609-.518 1.136-1.118 1.136m0-2.91c-.954 0-1.744.804-1.744 1.774s.79 1.773 1.744 1.773 1.745-.803 1.745-1.773c0-.97-.79-1.774-1.745-1.774"></path><path fill="#aba6a6" d="m3.588 11.168-1.646-.153c-.146-.018-.14-.154-.11-.34l.29-1.84c.04-.24.213-.437.4-.458l2.57-.23a.23.23 0 0 1 .23.23l-.143 1.936 1.5-.046-3.091.901zM24 18.06l-.733-1.978c-.368-.776-1.072-1.555-2.816-1.555-1.745 0-2.664.869-3.072 1.589H9.685v-.91l1-.182L9.532 4.22s-.81.135-1.249.393c0 0-5.044.443-5.286.54C1.967 5.57 1.08 7.316.793 8.3l.719.115s-.473 1.702-.819 3.199l-.503.454c-.02.093-.19 1.924-.19 1.924l.553.524-.287.812.139 2.124.465 1.384 2.11-.022s.617-.221.894-.322a2.204 2.204 0 0 1-.225-.968 2.216 2.216 0 1 1 4.231.917h10.556a2.204 2.204 0 0 1-.201-.917 2.216 2.216 0 1 1 4.27.83L24 18.058z"></path></svg>